<svg width="50" height="50" viewBox="0 0 50 50" fill="none" xmlns="http://www.w3.org/2000/svg">
<g clip-path="url(#clip0_18_55)">
<path d="M25 3.35352C13.0291 3.35352 3.33332 13.0493 3.33332 25.0202C3.33086 29.5686 4.76075 34.0023 7.42012 37.6923C10.0795 41.3823 13.8333 44.1412 18.149 45.5775C19.2323 45.766 19.6375 45.116 19.6375 44.5462C19.6375 44.0327 19.6093 42.3275 19.6093 40.5118C14.1666 41.515 12.7583 39.1858 12.325 37.966C12.0801 37.342 11.025 35.4202 10.1041 34.9045C9.34582 34.4993 8.26248 33.4962 10.076 33.4702C11.7833 33.442 13.001 35.041 13.4083 35.691C15.3583 38.967 18.474 38.0462 19.7176 37.4785C19.9083 36.0702 20.476 35.1233 21.1 34.5817C16.2791 34.04 11.2416 32.1702 11.2416 23.8827C11.2416 21.5253 12.0801 19.5775 13.4625 18.0587C13.2458 17.517 12.4875 15.2962 13.6791 12.317C13.6791 12.317 15.4926 11.7493 19.6375 14.54C21.4013 14.0505 23.2237 13.8041 25.0541 13.8077C26.8958 13.8077 28.7375 14.0503 30.4708 14.5378C34.6135 11.7212 36.4291 12.3192 36.4291 12.3192C37.6208 15.2983 36.8625 17.5192 36.6458 18.0608C38.026 19.5775 38.8666 21.4993 38.8666 23.8827C38.8666 32.1983 33.8031 34.04 28.9823 34.5817C29.7666 35.2577 30.4448 36.5577 30.4448 38.59C30.4448 41.4868 30.4166 43.816 30.4166 44.5483C30.4166 45.116 30.824 45.792 31.9073 45.5753C36.2082 44.1232 39.9455 41.359 42.5931 37.6717C45.2407 33.9843 46.6654 29.5596 46.6666 25.0202C46.6666 13.0493 36.9708 3.35352 25 3.35352Z" fill="#6C4768"/>
</g>
<defs>
<clipPath id="clip0_18_55">
<rect width="50" height="50" fill="white"/>
</clipPath>
</defs>
</svg>
