<svg width="50" height="50" viewBox="0 0 50 50" fill="none" xmlns="http://www.w3.org/2000/svg">
<path d="M41.7764 9.34539C38.6477 7.88154 35.3023 6.81769 31.8048 6.21191C31.3753 6.98849 30.8735 8.033 30.5275 8.86391C26.8096 8.30478 23.1259 8.30478 19.4763 8.86391C19.1304 8.033 18.6172 6.98849 18.1838 6.21191C14.6826 6.81769 11.3334 7.88545 8.20466 9.35314C1.89404 18.8893 0.183329 28.1886 1.03868 37.3559C5.22422 40.4815 9.28051 42.3803 13.2683 43.6228C14.253 42.2677 15.1311 40.8271 15.8876 39.309C14.4468 38.7615 13.0669 38.0859 11.763 37.3016C12.1089 37.0453 12.4472 36.7774 12.7741 36.5017C20.727 40.2214 29.368 40.2214 37.2259 36.5017C37.5566 36.7774 37.8949 37.0453 38.2371 37.3016C36.9293 38.0897 35.5456 38.7653 34.1048 39.3129C34.8613 40.8271 35.7357 42.2716 36.7241 43.6266C40.7157 42.3841 44.7758 40.4855 48.9613 37.3559C49.965 26.7287 47.2469 17.5148 41.7764 9.34539ZM16.9711 31.7181C14.5837 31.7181 12.6259 29.4893 12.6259 26.7753C12.6259 24.0612 14.5419 21.8286 16.9711 21.8286C19.4003 21.8286 21.3581 24.0573 21.3163 26.7753C21.3201 29.4893 19.4003 31.7181 16.9711 31.7181ZM33.029 31.7181C30.6416 31.7181 28.6837 29.4893 28.6837 26.7753C28.6837 24.0612 30.5997 21.8286 33.029 21.8286C35.4581 21.8286 37.416 24.0573 37.3742 26.7753C37.3742 29.4893 35.4581 31.7181 33.029 31.7181Z" fill="#6C4768"/>
</svg>
